<svg xmlns="http://www.w3.org/2000/svg" width="512" height="512" viewBox="0 0 512 512" role="img" aria-label="Remote Terminal">
  <rect width="512" height="512" rx="108" fill="#071525"/>
  <rect x="54" y="54" width="404" height="404" rx="86" fill="#182646" stroke="#34466b" stroke-width="8"/>
  <g transform="translate(64 64) scale(1.5)" fill="#a78bfa">
    <path d="M216,152v48a8,8,0,0,1-8,8H48a8,8,0,0,1-8-8V152a8,8,0,0,1,8-8H208A8,8,0,0,1,216,152ZM208,48H48a8,8,0,0,0-8,8v48a8,8,0,0,0,8,8H208a8,8,0,0,0,8-8V56A8,8,0,0,0,208,48Z" opacity="0.2"/>
    <path d="M208,136H48a16,16,0,0,0-16,16v48a16,16,0,0,0,16,16H208a16,16,0,0,0,16-16V152A16,16,0,0,0,208,136Zm0,64H48V152H208v48Zm0-160H48A16,16,0,0,0,32,56v48a16,16,0,0,0,16,16H208a16,16,0,0,0,16-16V56A16,16,0,0,0,208,40Zm0,64H48V56H208v48ZM192,80a12,12,0,1,1-12-12A12,12,0,0,1,192,80Zm0,96a12,12,0,1,1-12-12A12,12,0,0,1,192,176Z"/>
  </g>
</svg>
